<svg width="64" height="63" viewBox="0 0 64 63" fill="none" xmlns="http://www.w3.org/2000/svg">
<mask id="path-1-outside-1" maskUnits="userSpaceOnUse" x="-0.24763" y="-0.526179" width="63.6396" height="63.6396" fill="black">
<rect fill="white" x="-0.24763" y="-0.526179" width="63.6396" height="63.6396"/>
<path fill-rule="evenodd" clip-rule="evenodd" d="M55.4022 36.4549L32.0013 59.8558L32.001 59.8555L32.0006 59.8559L8.59971 36.455L13.4749 31.5798L28.4084 46.5133L28.4084 7.44728L35.303 7.44728V46.8038L50.5271 31.5797L55.4022 36.4549Z"/>
</mask>
<path d="M32.0013 59.8558L30.5871 61.2701L32.0013 62.6843L33.4156 61.2701L32.0013 59.8558ZM55.4022 36.4549L56.8165 37.8691L58.2307 36.4549L56.8165 35.0407L55.4022 36.4549ZM32.001 59.8555L33.4152 58.4413L32.001 57.0271L30.5868 58.4413L32.001 59.8555ZM32.0006 59.8559L30.5864 61.2701L32.0006 62.6843L33.4148 61.2701L32.0006 59.8559ZM8.59971 36.455L7.1855 35.0408L5.77128 36.455L7.1855 37.8692L8.59971 36.455ZM13.4749 31.5798L14.8891 30.1656L13.4749 28.7514L12.0607 30.1656L13.4749 31.5798ZM28.4084 46.5133L26.9942 47.9275L30.4084 51.3417L30.4084 46.5133H28.4084ZM28.4084 7.44728L28.4084 5.44728L26.4084 5.44728L26.4084 7.44728L28.4084 7.44728ZM35.303 7.44728L37.303 7.44728L37.303 5.44728L35.303 5.44728L35.303 7.44728ZM35.303 46.8038H33.303L33.303 51.6322L36.7172 48.218L35.303 46.8038ZM50.5271 31.5797L51.9413 30.1655L50.5271 28.7513L49.1128 30.1655L50.5271 31.5797ZM33.4156 61.2701L56.8165 37.8691L53.988 35.0407L30.5871 58.4416L33.4156 61.2701ZM30.5868 61.2697L30.5871 61.2701L33.4156 58.4416L33.4152 58.4413L30.5868 61.2697ZM30.5868 58.4413L30.5864 58.4417L33.4148 61.2701L33.4152 61.2697L30.5868 58.4413ZM33.4148 58.4417L10.0139 35.0408L7.1855 37.8692L30.5864 61.2701L33.4148 58.4417ZM10.0139 37.8692L14.8891 32.994L12.0607 30.1656L7.1855 35.0408L10.0139 37.8692ZM12.0607 32.994L26.9942 47.9275L29.8226 45.0991L14.8891 30.1656L12.0607 32.994ZM26.4084 7.44728L26.4084 46.5133L30.4084 46.5133L30.4084 7.44728L26.4084 7.44728ZM35.303 5.44728L28.4084 5.44728L28.4084 9.44728L35.303 9.44728L35.303 5.44728ZM37.303 46.8038L37.303 7.44728L33.303 7.44728L33.303 46.8038L37.303 46.8038ZM49.1128 30.1655L33.8888 45.3896L36.7172 48.218L51.9413 32.994L49.1128 30.1655ZM56.8165 35.0407L51.9413 30.1655L49.1128 32.994L53.988 37.8691L56.8165 35.0407Z" fill="#1A91DE" mask="url(#path-1-outside-1)"/>
</svg>
