<svg width="17" height="28" viewBox="0 0 17 28" fill="none" xmlns="http://www.w3.org/2000/svg">
<path d="M8.42253 14.1732C12.3363 14.1732 15.5085 11.0004 15.5085 7.08659C15.5085 3.17285 12.3363 0 8.42253 0C4.5082 0 1.33594 3.17285 1.33594 7.08659C1.33594 11.0003 4.5082 14.1732 8.42253 14.1732ZM8.42253 3.6003C10.3476 3.6003 11.9088 5.16096 11.9088 7.08659C11.9088 9.01223 10.3476 10.5729 8.42253 10.5729C6.49689 10.5729 4.93565 9.01223 4.93565 7.08659C4.93565 5.16096 6.49689 3.6003 8.42253 3.6003Z" fill="white"/>
<path d="M13.6093 14.7256C11.6184 16.2944 8.42147 16.2944 8.42147 16.2944C8.42147 16.2944 5.22383 16.2944 3.23328 14.7256C1.76048 13.5654 0.652452 14.2337 0.252433 15.0379C-0.445018 16.4389 0.342827 17.1162 2.12155 18.2577C3.64081 19.2332 5.7279 19.5976 7.07567 19.7336L5.95027 20.8588C4.36541 22.4431 2.83579 23.9731 1.77463 25.0345C1.13994 25.6688 1.13994 26.6983 1.77463 27.3325L1.96606 27.5238C2.60094 28.1585 3.62969 28.1585 4.26399 27.5238L8.44022 23.3483C10.0251 24.9331 11.5547 26.4627 12.6159 27.5238C13.2505 28.1585 14.2793 28.1585 14.9142 27.5238L15.1056 27.3325C15.7399 26.6973 15.7399 25.6688 15.1056 25.0345L10.9291 20.8582L9.80056 19.7297C11.1496 19.5911 13.2146 19.2251 14.7207 18.2576C16.4991 17.1161 17.2875 16.4388 16.5898 15.0378C16.19 14.2338 15.0813 13.5654 13.6093 14.7256Z" fill="white"/>
</svg>
