<svg width="42" height="42" viewBox="0 0 42 42" fill="none" xmlns="http://www.w3.org/2000/svg">
<g opacity="0.64">
<mask id="path-1-outside-1" maskUnits="userSpaceOnUse" x="0" y="0" width="42" height="42" fill="black">
<rect fill="white" width="42" height="42"/>
<path fill-rule="evenodd" clip-rule="evenodd" d="M24.9205 20.6775L38.3553 7.24264L34.1127 3L20.6779 16.4348L7.2431 3.00009L3.00046 7.24273L16.4352 20.6775L3 34.1127L7.24264 38.3553L20.6779 24.9201L34.1132 38.3554L38.3558 34.1128L24.9205 20.6775Z"/>
</mask>
<path d="M38.3553 7.24264L39.7696 8.65685L41.1838 7.24264L39.7696 5.82843L38.3553 7.24264ZM24.9205 20.6775L23.5063 19.2633L22.0921 20.6775L23.5063 22.0917L24.9205 20.6775ZM34.1127 3L35.5269 1.58579L34.1127 0.171573L32.6985 1.58579L34.1127 3ZM20.6779 16.4348L19.2636 17.8491L20.6779 19.2633L22.0921 17.8491L20.6779 16.4348ZM7.2431 3.00009L8.65731 1.58588L7.2431 0.171664L5.82889 1.58588L7.2431 3.00009ZM3.00046 7.24273L1.58625 5.82852L0.172031 7.24273L1.58624 8.65694L3.00046 7.24273ZM16.4352 20.6775L17.8494 22.0917L19.2636 20.6775L17.8494 19.2633L16.4352 20.6775ZM3 34.1127L1.58579 32.6985L0.171573 34.1127L1.58579 35.5269L3 34.1127ZM7.24264 38.3553L5.82843 39.7696L7.24264 41.1838L8.65685 39.7696L7.24264 38.3553ZM20.6779 24.9201L22.0921 23.5059L20.6779 22.0917L19.2636 23.5059L20.6779 24.9201ZM34.1132 38.3554L32.6989 39.7696L34.1132 41.1839L35.5274 39.7696L34.1132 38.3554ZM38.3558 34.1128L39.77 35.527L41.1842 34.1128L39.77 32.6986L38.3558 34.1128ZM36.9411 5.82843L23.5063 19.2633L26.3347 22.0917L39.7696 8.65685L36.9411 5.82843ZM32.6985 4.41421L36.9411 8.65685L39.7696 5.82843L35.5269 1.58579L32.6985 4.41421ZM22.0921 17.8491L35.5269 4.41421L32.6985 1.58579L19.2636 15.0206L22.0921 17.8491ZM5.82889 4.4143L19.2636 17.8491L22.0921 15.0206L8.65731 1.58588L5.82889 4.4143ZM4.41467 8.65694L8.65731 4.4143L5.82889 1.58588L1.58625 5.82852L4.41467 8.65694ZM17.8494 19.2633L4.41467 5.82852L1.58624 8.65694L15.021 22.0917L17.8494 19.2633ZM4.41421 35.5269L17.8494 22.0917L15.021 19.2633L1.58579 32.6985L4.41421 35.5269ZM8.65685 36.9411L4.41421 32.6985L1.58579 35.5269L5.82843 39.7696L8.65685 36.9411ZM19.2636 23.5059L5.82843 36.9411L8.65685 39.7696L22.0921 26.3343L19.2636 23.5059ZM35.5274 36.9412L22.0921 23.5059L19.2636 26.3343L32.6989 39.7696L35.5274 36.9412ZM36.9416 32.6986L32.6989 36.9412L35.5274 39.7696L39.77 35.527L36.9416 32.6986ZM23.5063 22.0917L36.9416 35.527L39.77 32.6986L26.3347 19.2633L23.5063 22.0917Z" fill="black" mask="url(#path-1-outside-1)"/>
</g>
</svg>
