<svg width="24" height="24" viewBox="0 0 24 24" fill="none" xmlns="http://www.w3.org/2000/svg">
<path fill-rule="evenodd" clip-rule="evenodd" d="M0 2C0 0.89543 0.895431 0 2 0H22C23.1046 0 24 0.895431 24 2V7.19998H17.3666C16.0483 5.727 14.1324 4.80002 12 4.80002C9.86762 4.80002 7.95175 5.727 6.63338 7.19998H0V2ZM18.7903 9.59998H24V22C24 23.1046 23.1046 24 22 24H2C0.89543 24 0 23.1046 0 22V9.59998H5.20971C4.94438 10.3507 4.8 11.1585 4.8 12C4.8 15.9765 8.02355 19.2 12 19.2C15.9764 19.2 19.2 15.9765 19.2 12C19.2 11.1585 19.0556 10.3507 18.7903 9.59998ZM12 16.8C14.651 16.8 16.8 14.651 16.8 12C16.8 9.34905 14.651 7.20002 12 7.20002C9.34903 7.20002 7.2 9.34905 7.2 12C7.2 14.651 9.34903 16.8 12 16.8ZM20.4 5.99998C21.7255 5.99998 22.8 4.92547 22.8 3.59998C22.8 2.2745 21.7255 1.19998 20.4 1.19998C19.0745 1.19998 18 2.2745 18 3.59998C18 4.92547 19.0745 5.99998 20.4 5.99998Z" fill="#E7E7E7"/>
</svg>
