<svg width="43" height="43" viewBox="0 0 43 43" fill="none" xmlns="http://www.w3.org/2000/svg">
<path d="M40.0625 8.94975L40.7696 8.24264L40.0625 7.53553L35.8198 3.29289L35.1127 2.58579L34.4056 3.29289L21.6779 16.0206L8.95021 3.29298L8.2431 2.58588L7.53599 3.29298L3.29335 7.53562L2.58624 8.24273L3.29335 8.94984L16.021 21.6775L3.29289 34.4056L2.58579 35.1127L3.29289 35.8198L7.53553 40.0624L8.24264 40.7696L8.94975 40.0624L21.6779 27.3343L34.406 40.0625L35.1132 40.7696L35.8203 40.0625L40.0629 35.8199L40.77 35.1128L40.0629 34.4057L27.3347 21.6775L40.0625 8.94975Z" stroke="black" stroke-width="2"/>
</svg>
