<svg width="37" height="34" viewBox="0 0 37 34" fill="none" xmlns="http://www.w3.org/2000/svg">
<g opacity="0.64">
<mask id="path-1-outside-1" maskUnits="userSpaceOnUse" x="0.716443" y="-2.95648" width="39.714" height="39.4816" fill="black">
<rect fill="white" x="0.716443" y="-2.95648" width="39.714" height="39.4816"/>
<path fill-rule="evenodd" clip-rule="evenodd" d="M17.2974 30.4482L3.81217 17.0418L3.81225 17.0418L3.81199 17.0415L17.2973 3.63513L20.1067 6.42812L11.501 14.9835L34.0136 14.9835L34.0136 18.9334L11.3337 18.9334L20.1069 27.6552L17.2974 30.4482Z"/>
</mask>
<path d="M3.81217 17.0418L2.39382 15.6318L0.975459 17.0418L2.39382 18.4519L3.81217 17.0418ZM17.2974 30.4482L15.8791 31.8583L17.2974 33.2683L18.7158 31.8583L17.2974 30.4482ZM3.81225 17.0418L5.2306 18.4518L6.64896 17.0418L5.2306 15.6317L3.81225 17.0418ZM3.81199 17.0415L2.39363 15.6314L0.975273 17.0415L2.39363 18.4516L3.81199 17.0415ZM17.2973 3.63513L18.7156 2.22507L17.2973 0.815012L15.8789 2.22507L17.2973 3.63513ZM20.1067 6.42812L21.5251 7.83818L22.9434 6.42812L21.5251 5.01806L20.1067 6.42812ZM11.501 14.9835L10.0826 13.5734L6.65838 16.9776L11.501 16.9776L11.501 14.9835ZM34.0136 14.9835L36.0195 14.9835L36.0195 12.9894L34.0136 12.9894L34.0136 14.9835ZM34.0136 18.9334L34.0136 20.9275L36.0195 20.9275L36.0195 18.9334L34.0136 18.9334ZM11.3337 18.9334L11.3337 16.9393L6.49116 16.9393L9.91537 20.3435L11.3337 18.9334ZM20.1069 27.6552L21.5252 29.0653L22.9436 27.6552L21.5252 26.2452L20.1069 27.6552ZM2.39382 18.4519L15.8791 31.8583L18.7158 29.0381L5.23053 15.6318L2.39382 18.4519ZM2.39389 15.6317L2.39382 15.6318L5.23053 18.4519L5.2306 18.4518L2.39389 15.6317ZM5.2306 15.6317L5.23034 15.6314L2.39363 18.4516L2.39389 18.4518L5.2306 15.6317ZM5.23034 18.4516L18.7156 5.04519L15.8789 2.22507L2.39363 15.6314L5.23034 18.4516ZM15.8789 5.04519L18.6883 7.83818L21.5251 5.01806L18.7156 2.22507L15.8789 5.04519ZM18.6883 5.01806L10.0826 13.5734L12.9193 16.3936L21.5251 7.83818L18.6883 5.01806ZM34.0136 12.9894L11.501 12.9894L11.501 16.9776L34.0136 16.9776L34.0136 12.9894ZM36.0195 18.9334L36.0195 14.9835L32.0078 14.9835L32.0078 18.9334L36.0195 18.9334ZM11.3337 20.9275L34.0136 20.9275L34.0136 16.9393L11.3337 16.9393L11.3337 20.9275ZM21.5252 26.2452L12.7521 17.5233L9.91537 20.3435L18.6885 29.0653L21.5252 26.2452ZM18.7158 31.8583L21.5252 29.0653L18.6885 26.2452L15.8791 29.0381L18.7158 31.8583Z" fill="white" mask="url(#path-1-outside-1)"/>
</g>
</svg>
