<svg width="174" height="88" viewBox="0 0 174 88" fill="none" xmlns="http://www.w3.org/2000/svg">
<g opacity="0.64">
<path fill-rule="evenodd" clip-rule="evenodd" d="M0 66V88H174V0H0V22C0 22 21 22 21 44C21 66 0 66 0 66ZM2 20.1386C2.4756 20.1928 3.02257 20.2683 3.62525 20.3736C5.73158 20.7413 8.56849 21.4805 11.428 22.9783C14.2972 24.4813 17.2135 26.762 19.4061 30.2075C21.6038 33.6611 23 38.1686 23 44C23 49.8314 21.6038 54.3389 19.4061 57.7925C17.2135 61.238 14.2972 63.5187 11.428 65.0217C8.56849 66.5195 5.73158 67.2587 3.62525 67.6264C3.02257 67.7317 2.4756 67.8072 2 67.8614V86H172V2H2V20.1386Z" fill="white"/>
<path d="M64.4463 33.0938H72.8994C74.8057 33.0938 76.2588 33.2396 77.2588 33.5312C78.6025 33.9271 79.7536 34.6302 80.7119 35.6406C81.6702 36.651 82.3994 37.8906 82.8994 39.3594C83.3994 40.8177 83.6494 42.6198 83.6494 44.7656C83.6494 46.651 83.415 48.276 82.9463 49.6406C82.3734 51.3073 81.5557 52.6562 80.4932 53.6875C79.6911 54.4688 78.6077 55.0781 77.2432 55.5156C76.2223 55.8385 74.8577 56 73.1494 56H64.4463V33.0938ZM69.0713 36.9688V52.1406H72.5244C73.8161 52.1406 74.7484 52.0677 75.3213 51.9219C76.0713 51.7344 76.6911 51.4167 77.1807 50.9688C77.6807 50.5208 78.0869 49.7865 78.3994 48.7656C78.7119 47.7344 78.8682 46.3333 78.8682 44.5625C78.8682 42.7917 78.7119 41.4323 78.3994 40.4844C78.0869 39.5365 77.6494 38.7969 77.0869 38.2656C76.5244 37.7344 75.8109 37.375 74.9463 37.1875C74.3005 37.0417 73.0348 36.9688 71.1494 36.9688H69.0713Z" fill="white"/>
<path d="M88.5313 33.0938H96.9844C98.8907 33.0938 100.344 33.2396 101.344 33.5312C102.688 33.9271 103.839 34.6302 104.797 35.6406C105.755 36.651 106.484 37.8906 106.984 39.3594C107.484 40.8177 107.734 42.6198 107.734 44.7656C107.734 46.651 107.5 48.276 107.031 49.6406C106.458 51.3073 105.641 52.6562 104.578 53.6875C103.776 54.4688 102.693 55.0781 101.328 55.5156C100.307 55.8385 98.9427 56 97.2344 56H88.5313V33.0938ZM93.1563 36.9688V52.1406H96.6094C97.9011 52.1406 98.8334 52.0677 99.4063 51.9219C100.156 51.7344 100.776 51.4167 101.266 50.9688C101.766 50.5208 102.172 49.7865 102.484 48.7656C102.797 47.7344 102.953 46.3333 102.953 44.5625C102.953 42.7917 102.797 41.4323 102.484 40.4844C102.172 39.5365 101.734 38.7969 101.172 38.2656C100.609 37.7344 99.8959 37.375 99.0313 37.1875C98.3855 37.0417 97.1198 36.9688 95.2344 36.9688H93.1563Z" fill="white"/>
<path d="M117.788 56V36.9688H110.991V33.0938H129.194V36.9688H122.413V56H117.788Z" fill="white"/>
<path d="M149.039 9.78125C151.604 9.78125 154.065 10.4258 156.422 11.7148C158.779 12.9909 160.628 14.8268 161.969 17.2227C163.323 19.6185 164 22.125 164 24.7422C164 27.3464 163.336 29.8333 162.008 32.2031C160.693 34.5599 158.85 36.4023 156.48 37.7305C154.124 39.0456 151.643 39.7031 149.039 39.7031C146.435 39.7031 143.948 39.0456 141.578 37.7305C139.221 36.4023 137.379 34.5599 136.051 32.2031C134.736 29.8333 134.078 27.3464 134.078 24.7422C134.078 22.125 134.749 19.6185 136.09 17.2227C137.444 14.8268 139.299 12.9909 141.656 11.7148C144.013 10.4258 146.474 9.78125 149.039 9.78125ZM149.059 12.7109C147.001 12.7109 145.029 13.2253 143.141 14.2539C141.253 15.2826 139.762 16.7604 138.668 18.6875C137.587 20.6146 137.047 22.6328 137.047 24.7422C137.047 26.8385 137.574 28.8372 138.629 30.7383C139.697 32.6393 141.181 34.1237 143.082 35.1914C144.983 36.2591 146.975 36.793 149.059 36.793C151.155 36.793 153.147 36.2591 155.035 35.1914C156.936 34.1237 158.421 32.6393 159.488 30.7383C160.556 28.8372 161.09 26.8385 161.09 24.7422C161.09 22.6328 160.543 20.6146 159.449 18.6875C158.368 16.7604 156.878 15.2826 154.977 14.2539C153.089 13.2253 151.116 12.7109 149.059 12.7109ZM142.281 32.75V16.8711H145.504C148.525 16.8711 150.217 16.8841 150.582 16.9102C151.65 17.0013 152.477 17.2161 153.062 17.5547C153.661 17.8802 154.156 18.388 154.547 19.0781C154.951 19.7552 155.152 20.5104 155.152 21.3438C155.152 22.4896 154.775 23.4727 154.02 24.293C153.277 25.1003 152.229 25.6016 150.875 25.7969C151.357 25.9792 151.728 26.181 151.988 26.4023C152.249 26.6107 152.607 27.0143 153.062 27.6133C153.18 27.7695 153.57 28.4141 154.234 29.5469L156.109 32.75H152.125L150.797 30.1719C149.898 28.4401 149.156 27.3529 148.57 26.9102C147.984 26.4544 147.242 26.2266 146.344 26.2266H145.504V32.75H142.281ZM145.504 23.7266H146.812C148.674 23.7266 149.827 23.6549 150.27 23.5117C150.725 23.3685 151.083 23.1211 151.344 22.7695C151.604 22.4049 151.734 21.9948 151.734 21.5391C151.734 21.0964 151.604 20.7057 151.344 20.3672C151.096 20.0156 150.738 19.7682 150.27 19.625C149.801 19.4688 148.648 19.3906 146.812 19.3906H145.504V23.7266Z" fill="white"/>
<path fill-rule="evenodd" clip-rule="evenodd" d="M34 2H36V12H34V2ZM34 76H36V86H34V76ZM36 28H34V60H36V28Z" fill="white"/>
</g>
</svg>
