<svg width="28" height="28" viewBox="0 0 28 28" fill="none" xmlns="http://www.w3.org/2000/svg">
<path fill-rule="evenodd" clip-rule="evenodd" d="M20 6C20 2.68629 17.3137 0 14 0C10.6863 0 8 2.68629 8 6C8 9.31371 10.6863 12 14 12C17.3137 12 20 9.31371 20 6ZM6 16C9.31371 16 12 18.6863 12 22C12 25.3137 9.31371 28 6 28C2.68629 28 0 25.3137 0 22C0 18.6863 2.68629 16 6 16ZM22 16C25.3137 16 28 18.6863 28 22C28 25.3137 25.3137 28 22 28C18.6863 28 16 25.3137 16 22C16 18.6863 18.6863 16 22 16Z" fill="#E7E7E7"/>
</svg>
