<svg width="174" height="88" viewBox="0 0 174 88" fill="none" xmlns="http://www.w3.org/2000/svg">
<g opacity="0.64">
<path fill-rule="evenodd" clip-rule="evenodd" d="M0 62V80H157V0H0V22C0 22 0.0910172 21.9973 0.259732 22C2.39679 22.0339 17 22.9268 17 41C17 60.5 0 62 0 62ZM2 20.1175C2.29999 20.1518 2.62665 20.1958 2.97563 20.2522C4.72234 20.5348 7.07859 21.1372 9.45589 22.4307C11.847 23.7318 14.2602 25.734 16.0653 28.7867C17.8699 31.8387 19 35.8276 19 41C19 51.4568 14.383 57.3176 9.60373 60.4804C7.2618 62.0302 4.93241 62.9016 3.19446 63.3872C2.75856 63.509 2.35754 63.6071 2 63.686V78H155V2H2V20.1175Z" fill="white"/>
<rect x="34" y="68" width="2" height="10" fill="white"/>
<rect x="34" y="2" width="2" height="10" fill="white"/>
<rect x="34" y="24" width="2" height="32" fill="white"/>
<path d="M47 12H174V88H47V12Z" fill="black"/>
<path fill-rule="evenodd" clip-rule="evenodd" d="M172 14H49V86H172V14ZM47 12V88H174V12H47Z" fill="white"/>
<path fill-rule="evenodd" clip-rule="evenodd" d="M139.337 63.9411C146.314 60.1913 150 55.3469 150 50.5C150 45.6531 146.314 40.8087 139.337 37.0589C132.443 33.3532 122.782 31 112 31C101.218 31 91.5568 33.3532 84.6626 37.0589C77.6861 40.8087 74 45.6531 74 50.5C74 55.3469 77.6861 60.1913 84.6626 63.9411C91.5568 67.6468 101.218 70 112 70C122.782 70 132.443 67.6468 139.337 63.9411ZM112 72C134.091 72 152 62.3741 152 50.5C152 38.6259 134.091 29 112 29C89.9086 29 72 38.6259 72 50.5C72 62.3741 89.9086 72 112 72Z" fill="white"/>
<path d="M104.303 52.496H106.831V54.736H104.303V57.296H106.831V62H111.215V57.296H118.223V54.736H111.215V52.496H113.295C120.111 52.496 121.775 48.4 121.775 45.552C121.775 43.312 120.879 38.32 113.295 38.32H106.831V49.424H104.303V52.496ZM111.215 42.416H113.551C114.735 42.416 117.391 42.832 117.391 45.808C117.391 48.976 114.799 49.424 113.551 49.424H111.215V42.416Z" fill="white"/>
</g>
</svg>
